# xmcd
#
# Track frame offsets: 
#        150
#        7767
#        25890
#        44656
#        62543
#        77146
#        97757
#        116843
#        135269
#        153815
#        172625
#        191805
#        209225
#        227916
#        246050
#        265373
#
# Disc length: 3668 seconds
#
# Revision: 3
# Processed by: cddbd v1.5.2PL0 Copyright (c) Steve Scherf et al.
# Submitted via: ExactAudioCopy v0.99pb5
#
DISCID=cb0e5210
DTITLE=Mario Ortiz All Star Band - Tributo 45 Aniversario
DYEAR=2009
DGENRE=Salsa
TTITLE0=Introduccion
TTITLE1=A Quitarse
TTITLE2=Yare Yare (BlemBlem - BlenBlen)
TTITLE3=Chinita
TTITLE4=Odiame - Hable Con Un Nino Medley
TTITLE5=Move
TTITLE6=Se Acabo El Bembe
TTITLE7=Mambo Infierno
TTITLE8=Guiro y Pandereta
TTITLE9=El Soplo
TTITLE10=Malaguena
TTITLE11=Rumberito
TTITLE12=Que Bonito Es Puerto Rico
TTITLE13=Maina
TTITLE14=Para Los Bravos
TTITLE15=El Cid
EXTD=YEAR: 2009
EXTT0=
EXTT1=
EXTT2=
EXTT3=
EXTT4=
EXTT5=
EXTT6=
EXTT7=
EXTT8=
EXTT9=
EXTT10=
EXTT11=
EXTT12=
EXTT13=
EXTT14=
EXTT15=
PLAYORDER=
